<?xml version="1.0" encoding="utf-8" standalone="no"?>
<!DOCTYPE svg PUBLIC "-//W3C//DTD SVG 1.1//EN"
  "http://www.w3.org/Graphics/SVG/1.1/DTD/svg11.dtd">
<svg xmlns:xlink="http://www.w3.org/1999/xlink" width="1080pt" height="288pt" viewBox="0 0 1080 288" xmlns="http://www.w3.org/2000/svg" version="1.1">
 <metadata>
  <rdf:RDF xmlns:dc="http://purl.org/dc/elements/1.1/" xmlns:cc="http://creativecommons.org/ns#" xmlns:rdf="http://www.w3.org/1999/02/22-rdf-syntax-ns#">
   <cc:Work>
    <dc:type rdf:resource="http://purl.org/dc/dcmitype/StillImage"/>
    <dc:date>2023-09-13T16:00:27.223257</dc:date>
    <dc:format>image/svg+xml</dc:format>
    <dc:creator>
     <cc:Agent>
      <dc:title>Matplotlib v3.7.1, https://matplotlib.org/</dc:title>
     </cc:Agent>
    </dc:creator>
   </cc:Work>
  </rdf:RDF>
 </metadata>
 <defs>
  <style type="text/css">*{stroke-linejoin: round; stroke-linecap: butt}</style>
 </defs>
 <g id="figure_1">
  <g id="patch_1">
   <path d="M 0 288 
L 1080 288 
L 1080 0 
L 0 0 
z
" style="fill: #f0f0f0"/>
  </g>
  <g id="axes_1">
   <g id="patch_2">
    <path d="M 38.32 254.21375 
L 1064.88 254.21375 
L 1064.88 44.64 
L 38.32 44.64 
z
" style="fill: #f0f0f0"/>
   </g>
   <g id="matplotlib.axis_1">
    <g id="xtick_1">
     <g id="text_1">
      <!-- BMI -->
      <g style="fill: #262626" transform="translate(284.818516 269.572031) scale(0.11 -0.11)">
       <defs>
        <path id="DejaVuSans-42" d="M 1259 2228 
L 1259 519 
L 2272 519 
Q 2781 519 3026 730 
Q 3272 941 3272 1375 
Q 3272 1813 3026 2020 
Q 2781 2228 2272 2228 
L 1259 2228 
z
M 1259 4147 
L 1259 2741 
L 2194 2741 
Q 2656 2741 2882 2914 
Q 3109 3088 3109 3444 
Q 3109 3797 2882 3972 
Q 2656 4147 2194 4147 
L 1259 4147 
z
M 628 4666 
L 2241 4666 
Q 2963 4666 3353 4366 
Q 3744 4066 3744 3513 
Q 3744 3084 3544 2831 
Q 3344 2578 2956 2516 
Q 3422 2416 3680 2098 
Q 3938 1781 3938 1306 
Q 3938 681 3513 340 
Q 3088 0 2303 0 
L 628 0 
L 628 4666 
z
" transform="scale(0.015625)"/>
        <path id="DejaVuSans-4d" d="M 628 4666 
L 1569 4666 
L 2759 1491 
L 3956 4666 
L 4897 4666 
L 4897 0 
L 4281 0 
L 4281 4097 
L 3078 897 
L 2444 897 
L 1241 4097 
L 1241 0 
L 628 0 
L 628 4666 
z
" transform="scale(0.015625)"/>
        <path id="DejaVuSans-49" d="M 628 4666 
L 1259 4666 
L 1259 0 
L 628 0 
L 628 4666 
z
" transform="scale(0.015625)"/>
       </defs>
       <use xlink:href="#DejaVuSans-42"/>
       <use xlink:href="#DejaVuSans-4d" x="68.603516"/>
       <use xlink:href="#DejaVuSans-49" x="154.882812"/>
      </g>
     </g>
    </g>
    <g id="xtick_2">
     <g id="text_2">
      <!-- Total_BP -->
      <g style="fill: #262626" transform="translate(785.555938 269.572031) scale(0.11 -0.11)">
       <defs>
        <path id="DejaVuSans-54" d="M -19 4666 
L 3928 4666 
L 3928 4134 
L 2272 4134 
L 2272 0 
L 1638 0 
L 1638 4134 
L -19 4134 
L -19 4666 
z
" transform="scale(0.015625)"/>
        <path id="DejaVuSans-6f" d="M 1959 3097 
Q 1497 3097 1228 2736 
Q 959 2375 959 1747 
Q 959 1119 1226 758 
Q 1494 397 1959 397 
Q 2419 397 2687 759 
Q 2956 1122 2956 1747 
Q 2956 2369 2687 2733 
Q 2419 3097 1959 3097 
z
M 1959 3584 
Q 2709 3584 3137 3096 
Q 3566 2609 3566 1747 
Q 3566 888 3137 398 
Q 2709 -91 1959 -91 
Q 1206 -91 779 398 
Q 353 888 353 1747 
Q 353 2609 779 3096 
Q 1206 3584 1959 3584 
z
" transform="scale(0.015625)"/>
        <path id="DejaVuSans-74" d="M 1172 4494 
L 1172 3500 
L 2356 3500 
L 2356 3053 
L 1172 3053 
L 1172 1153 
Q 1172 725 1289 603 
Q 1406 481 1766 481 
L 2356 481 
L 2356 0 
L 1766 0 
Q 1100 0 847 248 
Q 594 497 594 1153 
L 594 3053 
L 172 3053 
L 172 3500 
L 594 3500 
L 594 4494 
L 1172 4494 
z
" transform="scale(0.015625)"/>
        <path id="DejaVuSans-61" d="M 2194 1759 
Q 1497 1759 1228 1600 
Q 959 1441 959 1056 
Q 959 750 1161 570 
Q 1363 391 1709 391 
Q 2188 391 2477 730 
Q 2766 1069 2766 1631 
L 2766 1759 
L 2194 1759 
z
M 3341 1997 
L 3341 0 
L 2766 0 
L 2766 531 
Q 2569 213 2275 61 
Q 1981 -91 1556 -91 
Q 1019 -91 701 211 
Q 384 513 384 1019 
Q 384 1609 779 1909 
Q 1175 2209 1959 2209 
L 2766 2209 
L 2766 2266 
Q 2766 2663 2505 2880 
Q 2244 3097 1772 3097 
Q 1472 3097 1187 3025 
Q 903 2953 641 2809 
L 641 3341 
Q 956 3463 1253 3523 
Q 1550 3584 1831 3584 
Q 2591 3584 2966 3190 
Q 3341 2797 3341 1997 
z
" transform="scale(0.015625)"/>
        <path id="DejaVuSans-6c" d="M 603 4863 
L 1178 4863 
L 1178 0 
L 603 0 
L 603 4863 
z
" transform="scale(0.015625)"/>
        <path id="DejaVuSans-5f" d="M 3263 -1063 
L 3263 -1509 
L -63 -1509 
L -63 -1063 
L 3263 -1063 
z
" transform="scale(0.015625)"/>
        <path id="DejaVuSans-50" d="M 1259 4147 
L 1259 2394 
L 2053 2394 
Q 2494 2394 2734 2622 
Q 2975 2850 2975 3272 
Q 2975 3691 2734 3919 
Q 2494 4147 2053 4147 
L 1259 4147 
z
M 628 4666 
L 2053 4666 
Q 2838 4666 3239 4311 
Q 3641 3956 3641 3272 
Q 3641 2581 3239 2228 
Q 2838 1875 2053 1875 
L 1259 1875 
L 1259 0 
L 628 0 
L 628 4666 
z
" transform="scale(0.015625)"/>
       </defs>
       <use xlink:href="#DejaVuSans-54"/>
       <use xlink:href="#DejaVuSans-6f" x="44.083984"/>
       <use xlink:href="#DejaVuSans-74" x="105.265625"/>
       <use xlink:href="#DejaVuSans-61" x="144.474609"/>
       <use xlink:href="#DejaVuSans-6c" x="205.753906"/>
       <use xlink:href="#DejaVuSans-5f" x="233.537109"/>
       <use xlink:href="#DejaVuSans-42" x="283.537109"/>
       <use xlink:href="#DejaVuSans-50" x="352.140625"/>
      </g>
     </g>
    </g>
   </g>
   <g id="matplotlib.axis_2">
    <g id="ytick_1">
     <g id="line2d_1">
      <path d="M 38.32 253.989445 
L 1064.88 253.989445 
" clip-path="url(#pbf823eb47e)" style="fill: none; stroke: #cbcbcb"/>
     </g>
     <g id="text_3">
      <!-- −3 -->
      <g style="fill: #262626" transform="translate(15.103594 258.168586) scale(0.11 -0.11)">
       <defs>
        <path id="DejaVuSans-2212" d="M 678 2272 
L 4684 2272 
L 4684 1741 
L 678 1741 
L 678 2272 
z
" transform="scale(0.015625)"/>
        <path id="DejaVuSans-33" d="M 2597 2516 
Q 3050 2419 3304 2112 
Q 3559 1806 3559 1356 
Q 3559 666 3084 287 
Q 2609 -91 1734 -91 
Q 1441 -91 1130 -33 
Q 819 25 488 141 
L 488 750 
Q 750 597 1062 519 
Q 1375 441 1716 441 
Q 2309 441 2620 675 
Q 2931 909 2931 1356 
Q 2931 1769 2642 2001 
Q 2353 2234 1838 2234 
L 1294 2234 
L 1294 2753 
L 1863 2753 
Q 2328 2753 2575 2939 
Q 2822 3125 2822 3475 
Q 2822 3834 2567 4026 
Q 2313 4219 1838 4219 
Q 1578 4219 1281 4162 
Q 984 4106 628 3988 
L 628 4550 
Q 988 4650 1302 4700 
Q 1616 4750 1894 4750 
Q 2613 4750 3031 4423 
Q 3450 4097 3450 3541 
Q 3450 3153 3228 2886 
Q 3006 2619 2597 2516 
z
" transform="scale(0.015625)"/>
       </defs>
       <use xlink:href="#DejaVuSans-2212"/>
       <use xlink:href="#DejaVuSans-33" x="83.789062"/>
      </g>
     </g>
    </g>
    <g id="ytick_2">
     <g id="line2d_2">
      <path d="M 38.32 218.821401 
L 1064.88 218.821401 
" clip-path="url(#pbf823eb47e)" style="fill: none; stroke: #cbcbcb"/>
     </g>
     <g id="text_4">
      <!-- −2 -->
      <g style="fill: #262626" transform="translate(15.103594 223.000541) scale(0.11 -0.11)">
       <defs>
        <path id="DejaVuSans-32" d="M 1228 531 
L 3431 531 
L 3431 0 
L 469 0 
L 469 531 
Q 828 903 1448 1529 
Q 2069 2156 2228 2338 
Q 2531 2678 2651 2914 
Q 2772 3150 2772 3378 
Q 2772 3750 2511 3984 
Q 2250 4219 1831 4219 
Q 1534 4219 1204 4116 
Q 875 4013 500 3803 
L 500 4441 
Q 881 4594 1212 4672 
Q 1544 4750 1819 4750 
Q 2544 4750 2975 4387 
Q 3406 4025 3406 3419 
Q 3406 3131 3298 2873 
Q 3191 2616 2906 2266 
Q 2828 2175 2409 1742 
Q 1991 1309 1228 531 
z
" transform="scale(0.015625)"/>
       </defs>
       <use xlink:href="#DejaVuSans-2212"/>
       <use xlink:href="#DejaVuSans-32" x="83.789062"/>
      </g>
     </g>
    </g>
    <g id="ytick_3">
     <g id="line2d_3">
      <path d="M 38.32 183.653356 
L 1064.88 183.653356 
" clip-path="url(#pbf823eb47e)" style="fill: none; stroke: #cbcbcb"/>
     </g>
     <g id="text_5">
      <!-- −1 -->
      <g style="fill: #262626" transform="translate(15.103594 187.832497) scale(0.11 -0.11)">
       <defs>
        <path id="DejaVuSans-31" d="M 794 531 
L 1825 531 
L 1825 4091 
L 703 3866 
L 703 4441 
L 1819 4666 
L 2450 4666 
L 2450 531 
L 3481 531 
L 3481 0 
L 794 0 
L 794 531 
z
" transform="scale(0.015625)"/>
       </defs>
       <use xlink:href="#DejaVuSans-2212"/>
       <use xlink:href="#DejaVuSans-31" x="83.789062"/>
      </g>
     </g>
    </g>
    <g id="ytick_4">
     <g id="line2d_4">
      <path d="M 38.32 148.485312 
L 1064.88 148.485312 
" clip-path="url(#pbf823eb47e)" style="fill: none; stroke: #cbcbcb"/>
     </g>
     <g id="text_6">
      <!-- 0 -->
      <g style="fill: #262626" transform="translate(24.32125 152.664452) scale(0.11 -0.11)">
       <defs>
        <path id="DejaVuSans-30" d="M 2034 4250 
Q 1547 4250 1301 3770 
Q 1056 3291 1056 2328 
Q 1056 1369 1301 889 
Q 1547 409 2034 409 
Q 2525 409 2770 889 
Q 3016 1369 3016 2328 
Q 3016 3291 2770 3770 
Q 2525 4250 2034 4250 
z
M 2034 4750 
Q 2819 4750 3233 4129 
Q 3647 3509 3647 2328 
Q 3647 1150 3233 529 
Q 2819 -91 2034 -91 
Q 1250 -91 836 529 
Q 422 1150 422 2328 
Q 422 3509 836 4129 
Q 1250 4750 2034 4750 
z
" transform="scale(0.015625)"/>
       </defs>
       <use xlink:href="#DejaVuSans-30"/>
      </g>
     </g>
    </g>
    <g id="ytick_5">
     <g id="line2d_5">
      <path d="M 38.32 113.317267 
L 1064.88 113.317267 
" clip-path="url(#pbf823eb47e)" style="fill: none; stroke: #cbcbcb"/>
     </g>
     <g id="text_7">
      <!-- 1 -->
      <g style="fill: #262626" transform="translate(24.32125 117.496408) scale(0.11 -0.11)">
       <use xlink:href="#DejaVuSans-31"/>
      </g>
     </g>
    </g>
    <g id="ytick_6">
     <g id="line2d_6">
      <path d="M 38.32 78.149223 
L 1064.88 78.149223 
" clip-path="url(#pbf823eb47e)" style="fill: none; stroke: #cbcbcb"/>
     </g>
     <g id="text_8">
      <!-- 2 -->
      <g style="fill: #262626" transform="translate(24.32125 82.328363) scale(0.11 -0.11)">
       <use xlink:href="#DejaVuSans-32"/>
      </g>
     </g>
    </g>
   </g>
   <g id="PolyCollection_1">
    <defs>
     <path id="m4609606ad1" d="M 298.771763 -60.598306 
L 291.148237 -60.598306 
L 289.169124 -62.188053 
L 286.407358 -63.7778 
L 282.675082 -65.367546 
L 277.790197 -66.957293 
L 271.597672 -68.54704 
L 263.993081 -70.136786 
L 254.944653 -71.726533 
L 244.509496 -73.31628 
L 232.839959 -74.906026 
L 220.177505 -76.495773 
L 206.833861 -78.08552 
L 193.161955 -79.675266 
L 179.521662 -81.265013 
L 166.246808 -82.85476 
L 153.619714 -84.444507 
L 141.8578 -86.034253 
L 131.113724 -87.624 
L 121.487079 -89.213747 
L 113.04281 -90.803493 
L 105.829957 -92.39324 
L 99.894683 -93.982987 
L 95.283463 -95.572733 
L 92.035445 -97.16248 
L 90.166245 -98.752227 
L 89.648 -100.341973 
L 90.391721 -101.93172 
L 92.237492 -103.521467 
L 94.956196 -105.111213 
L 98.263678 -106.70096 
L 101.84533 -108.290707 
L 105.386807 -109.880454 
L 108.605325 -111.4702 
L 111.276101 -113.059947 
L 113.249679 -114.649694 
L 114.457946 -116.23944 
L 114.908926 -117.829187 
L 114.672554 -119.418934 
L 113.86105 -121.00868 
L 112.608135 -122.598427 
L 111.050947 -124.188174 
L 109.317394 -125.77792 
L 107.520049 -127.367667 
L 105.755959 -128.957414 
L 104.110337 -130.54716 
L 102.661272 -132.136907 
L 101.482653 -133.726654 
L 100.643288 -135.316401 
L 100.201604 -136.906147 
L 100.196898 -138.495894 
L 100.639386 -140.085641 
L 101.501971 -141.675387 
L 102.716407 -143.265134 
L 104.175499 -144.854881 
L 105.741468 -146.444627 
L 107.259114 -148.034374 
L 108.571348 -149.624121 
L 109.534471 -151.213867 
L 110.031089 -152.803614 
L 109.979624 -154.393361 
L 109.340462 -155.983108 
L 108.119426 -157.572854 
L 106.369264 -159.162601 
L 104.189201 -160.752348 
L 101.721722 -162.342094 
L 99.145126 -163.931841 
L 96.660512 -165.521588 
L 94.472915 -167.111334 
L 92.76812 -168.701081 
L 91.688763 -170.290828 
L 91.314825 -171.880574 
L 91.653925 -173.470321 
L 92.64547 -175.060068 
L 94.179891 -176.649814 
L 96.130515 -178.239561 
L 98.392104 -179.829308 
L 100.917764 -181.419055 
L 103.745558 -183.008801 
L 107.007932 -184.598548 
L 110.920549 -186.188295 
L 115.751536 -187.778041 
L 121.776317 -189.367788 
L 129.226268 -190.957535 
L 138.240669 -192.547281 
L 148.8308 -194.137028 
L 160.862617 -195.726775 
L 174.061002 -197.316521 
L 188.03464 -198.906268 
L 202.317049 -200.496015 
L 216.416742 -202.085761 
L 229.868333 -203.675508 
L 242.276866 -205.265255 
L 253.349406 -206.855002 
L 262.910716 -208.444748 
L 270.902816 -210.034495 
L 277.37095 -211.624242 
L 282.440255 -213.213988 
L 286.288172 -214.803735 
L 289.117297 -216.393482 
L 291.132211 -217.983228 
L 298.787789 -217.983228 
L 298.787789 -217.983228 
L 300.802703 -216.393482 
L 303.631828 -214.803735 
L 307.479745 -213.213988 
L 312.54905 -211.624242 
L 319.017184 -210.034495 
L 327.009284 -208.444748 
L 336.570594 -206.855002 
L 347.643134 -205.265255 
L 360.051667 -203.675508 
L 373.503258 -202.085761 
L 387.602951 -200.496015 
L 401.88536 -198.906268 
L 415.858998 -197.316521 
L 429.057383 -195.726775 
L 441.0892 -194.137028 
L 451.679331 -192.547281 
L 460.693732 -190.957535 
L 468.143683 -189.367788 
L 474.168464 -187.778041 
L 478.999451 -186.188295 
L 482.912068 -184.598548 
L 486.174442 -183.008801 
L 489.002236 -181.419055 
L 491.527896 -179.829308 
L 493.789485 -178.239561 
L 495.740109 -176.649814 
L 497.27453 -175.060068 
L 498.266075 -173.470321 
L 498.605175 -171.880574 
L 498.231237 -170.290828 
L 497.15188 -168.701081 
L 495.447085 -167.111334 
L 493.259488 -165.521588 
L 490.774874 -163.931841 
L 488.198278 -162.342094 
L 485.730799 -160.752348 
L 483.550736 -159.162601 
L 481.800574 -157.572854 
L 480.579538 -155.983108 
L 479.940376 -154.393361 
L 479.888911 -152.803614 
L 480.385529 -151.213867 
L 481.348652 -149.624121 
L 482.660886 -148.034374 
L 484.178532 -146.444627 
L 485.744501 -144.854881 
L 487.203593 -143.265134 
L 488.418029 -141.675387 
L 489.280614 -140.085641 
L 489.723102 -138.495894 
L 489.718396 -136.906147 
L 489.276712 -135.316401 
L 488.437347 -133.726654 
L 487.258728 -132.136907 
L 485.809663 -130.54716 
L 484.164041 -128.957414 
L 482.399951 -127.367667 
L 480.602606 -125.77792 
L 478.869053 -124.188174 
L 477.311865 -122.598427 
L 476.05895 -121.00868 
L 475.247446 -119.418934 
L 475.011074 -117.829187 
L 475.462054 -116.23944 
L 476.670321 -114.649694 
L 478.643899 -113.059947 
L 481.314675 -111.4702 
L 484.533193 -109.880454 
L 488.07467 -108.290707 
L 491.656322 -106.70096 
L 494.963804 -105.111213 
L 497.682508 -103.521467 
L 499.528279 -101.93172 
L 500.272 -100.341973 
L 499.753755 -98.752227 
L 497.884555 -97.16248 
L 494.636537 -95.572733 
L 490.025317 -93.982987 
L 484.090043 -92.39324 
L 476.87719 -90.803493 
L 468.432921 -89.213747 
L 458.806276 -87.624 
L 448.0622 -86.034253 
L 436.300286 -84.444507 
L 423.673192 -82.85476 
L 410.398338 -81.265013 
L 396.758045 -79.675266 
L 383.086139 -78.08552 
L 369.742495 -76.495773 
L 357.080041 -74.906026 
L 345.410504 -73.31628 
L 334.975347 -71.726533 
L 325.926919 -70.136786 
L 318.322328 -68.54704 
L 312.129803 -66.957293 
L 307.244918 -65.367546 
L 303.512642 -63.7778 
L 300.750876 -62.188053 
L 298.771763 -60.598306 
z
" style="stroke: #484848; stroke-width: 3"/>
    </defs>
    <g clip-path="url(#pbf823eb47e)">
     <use xlink:href="#m4609606ad1" x="0" y="288" style="fill: #cb3335; stroke: #484848; stroke-width: 3"/>
    </g>
   </g>
   <g id="PolyCollection_2">
    <defs>
     <path id="mba4db654cf" d="M 809.128901 -43.31233 
L 807.351099 -43.31233 
L 806.775618 -45.23679 
L 805.925478 -47.161251 
L 804.727497 -49.085711 
L 803.116889 -51.010172 
L 801.050214 -52.934632 
L 798.517442 -54.859093 
L 795.549225 -56.783553 
L 792.215786 -58.708014 
L 788.615542 -60.632474 
L 784.854518 -62.556935 
L 781.020782 -64.481395 
L 777.160493 -66.405856 
L 773.262621 -68.330316 
L 769.257578 -70.254777 
L 765.031311 -72.179237 
L 760.4521 -74.103698 
L 755.403584 -76.028158 
L 749.815712 -77.952619 
L 743.685704 -79.877079 
L 737.083549 -81.80154 
L 730.140209 -83.726 
L 723.020642 -85.650461 
L 715.88722 -87.574921 
L 708.861524 -89.499382 
L 701.993482 -91.423842 
L 695.246176 -93.348303 
L 688.502099 -95.272763 
L 681.592287 -97.197224 
L 674.344105 -99.121684 
L 666.637612 -101.046145 
L 658.456274 -102.970605 
L 649.917107 -104.895066 
L 641.269373 -106.819527 
L 632.859332 -108.743987 
L 625.068856 -110.668448 
L 618.244388 -112.592908 
L 612.636015 -114.517369 
L 608.362758 -116.441829 
L 605.410807 -118.36629 
L 603.660294 -120.29075 
L 602.928 -122.215211 
L 603.011253 -124.139671 
L 603.722102 -126.064132 
L 604.907814 -127.988592 
L 606.459721 -129.913053 
L 608.314772 -131.837513 
L 610.452606 -133.761974 
L 612.887834 -135.686434 
L 615.655286 -137.610895 
L 618.787162 -139.535355 
L 622.284852 -141.459816 
L 626.092659 -143.384276 
L 630.082964 -145.308737 
L 634.060981 -147.233197 
L 637.792014 -149.157658 
L 641.046923 -151.082118 
L 643.654878 -153.006579 
L 645.548916 -154.931039 
L 646.790634 -156.8555 
L 647.565469 -158.77996 
L 648.147915 -160.704421 
L 648.844332 -162.628881 
L 649.927434 -164.553342 
L 651.579044 -166.477802 
L 653.85577 -168.402263 
L 656.686257 -170.326723 
L 659.900398 -172.251184 
L 663.282609 -174.175645 
L 666.635251 -176.100105 
L 669.835941 -178.024566 
L 672.874536 -179.949026 
L 675.861014 -181.873487 
L 679.003051 -183.797947 
L 682.559567 -185.722408 
L 686.78203 -187.646868 
L 691.857622 -189.571329 
L 697.867028 -191.495789 
L 704.765397 -193.42025 
L 712.389175 -195.34471 
L 720.485754 -197.269171 
L 728.75827 -199.193631 
L 736.915381 -201.118092 
L 744.715506 -203.042552 
L 751.996802 -204.967013 
L 758.687648 -206.891473 
L 764.797031 -208.815934 
L 770.388947 -210.740394 
L 775.54872 -212.664855 
L 780.350659 -214.589315 
L 784.835456 -216.513776 
L 789.002125 -218.438236 
L 792.814616 -220.362697 
L 796.218852 -222.287157 
L 799.163483 -224.211618 
L 801.617626 -226.136078 
L 803.580994 -228.060539 
L 805.085007 -229.984999 
L 806.186406 -231.90946 
L 806.956651 -233.83392 
L 809.523349 -233.83392 
L 809.523349 -233.83392 
L 810.293594 -231.90946 
L 811.394993 -229.984999 
L 812.899006 -228.060539 
L 814.862374 -226.136078 
L 817.316517 -224.211618 
L 820.261148 -222.287157 
L 823.665384 -220.362697 
L 827.477875 -218.438236 
L 831.644544 -216.513776 
L 836.129341 -214.589315 
L 840.93128 -212.664855 
L 846.091053 -210.740394 
L 851.682969 -208.815934 
L 857.792352 -206.891473 
L 864.483198 -204.967013 
L 871.764494 -203.042552 
L 879.564619 -201.118092 
L 887.72173 -199.193631 
L 895.994246 -197.269171 
L 904.090825 -195.34471 
L 911.714603 -193.42025 
L 918.612972 -191.495789 
L 924.622378 -189.571329 
L 929.69797 -187.646868 
L 933.920433 -185.722408 
L 937.476949 -183.797947 
L 940.618986 -181.873487 
L 943.605464 -179.949026 
L 946.644059 -178.024566 
L 949.844749 -176.100105 
L 953.197391 -174.175645 
L 956.579602 -172.251184 
L 959.793743 -170.326723 
L 962.62423 -168.402263 
L 964.900956 -166.477802 
L 966.552566 -164.553342 
L 967.635668 -162.628881 
L 968.332085 -160.704421 
L 968.914531 -158.77996 
L 969.689366 -156.8555 
L 970.931084 -154.931039 
L 972.825122 -153.006579 
L 975.433077 -151.082118 
L 978.687986 -149.157658 
L 982.419019 -147.233197 
L 986.397036 -145.308737 
L 990.387341 -143.384276 
L 994.195148 -141.459816 
L 997.692838 -139.535355 
L 1000.824714 -137.610895 
L 1003.592166 -135.686434 
L 1006.027394 -133.761974 
L 1008.165228 -131.837513 
L 1010.020279 -129.913053 
L 1011.572186 -127.988592 
L 1012.757898 -126.064132 
L 1013.468747 -124.139671 
L 1013.552 -122.215211 
L 1012.819706 -120.29075 
L 1011.069193 -118.36629 
L 1008.117242 -116.441829 
L 1003.843985 -114.517369 
L 998.235612 -112.592908 
L 991.411144 -110.668448 
L 983.620668 -108.743987 
L 975.210627 -106.819527 
L 966.562893 -104.895066 
L 958.023726 -102.970605 
L 949.842388 -101.046145 
L 942.135895 -99.121684 
L 934.887713 -97.197224 
L 927.977901 -95.272763 
L 921.233824 -93.348303 
L 914.486518 -91.423842 
L 907.618476 -89.499382 
L 900.59278 -87.574921 
L 893.459358 -85.650461 
L 886.339791 -83.726 
L 879.396451 -81.80154 
L 872.794296 -79.877079 
L 866.664288 -77.952619 
L 861.076416 -76.028158 
L 856.0279 -74.103698 
L 851.448689 -72.179237 
L 847.222422 -70.254777 
L 843.217379 -68.330316 
L 839.319507 -66.405856 
L 835.459218 -64.481395 
L 831.625482 -62.556935 
L 827.864458 -60.632474 
L 824.264214 -58.708014 
L 820.930775 -56.783553 
L 817.962558 -54.859093 
L 815.429786 -52.934632 
L 813.363111 -51.010172 
L 811.752503 -49.085711 
L 810.554522 -47.161251 
L 809.704382 -45.23679 
L 809.128901 -43.31233 
z
" style="stroke: #484848; stroke-width: 3"/>
    </defs>
    <g clip-path="url(#pbf823eb47e)">
     <use xlink:href="#mba4db654cf" x="0" y="288" style="fill: #477ca8; stroke: #484848; stroke-width: 3"/>
    </g>
   </g>
   <g id="line2d_7">
    <path d="M 294.96 209.734067 
L 294.96 87.684398 
" clip-path="url(#pbf823eb47e)" style="fill: none; stroke: #484848; stroke-width: 3"/>
   </g>
   <g id="line2d_8">
    <path d="M 294.96 180.899098 
L 294.96 117.217284 
" clip-path="url(#pbf823eb47e)" style="fill: none; stroke: #484848; stroke-width: 9"/>
   </g>
   <g id="line2d_9">
    <path d="M 808.24 227.020044 
L 808.24 71.833706 
" clip-path="url(#pbf823eb47e)" style="fill: none; stroke: #484848; stroke-width: 3"/>
   </g>
   <g id="line2d_10">
    <path d="M 808.24 174.793872 
L 808.24 121.075525 
" clip-path="url(#pbf823eb47e)" style="fill: none; stroke: #484848; stroke-width: 9"/>
   </g>
   <g id="patch_3">
    <path d="M 38.32 254.21375 
L 38.32 44.64 
" style="fill: none; stroke: #f0f0f0; stroke-width: 3; stroke-linejoin: miter; stroke-linecap: square"/>
   </g>
   <g id="patch_4">
    <path d="M 1064.88 254.21375 
L 1064.88 44.64 
" style="fill: none; stroke: #f0f0f0; stroke-width: 3; stroke-linejoin: miter; stroke-linecap: square"/>
   </g>
   <g id="patch_5">
    <path d="M 38.32 254.21375 
L 1064.88 254.21375 
" style="fill: none; stroke: #f0f0f0; stroke-width: 3; stroke-linejoin: miter; stroke-linecap: square"/>
   </g>
   <g id="patch_6">
    <path d="M 38.32 44.64 
L 1064.88 44.64 
" style="fill: none; stroke: #f0f0f0; stroke-width: 3; stroke-linejoin: miter; stroke-linecap: square"/>
   </g>
   <g id="PathCollection_1">
    <defs>
     <path id="mbcc7b595a7" d="M 0 3 
C 0.795609 3 1.55874 2.683901 2.12132 2.12132 
C 2.683901 1.55874 3 0.795609 3 0 
C 3 -0.795609 2.683901 -1.55874 2.12132 -2.12132 
C 1.55874 -2.683901 0.795609 -3 0 -3 
C -0.795609 -3 -1.55874 -2.683901 -2.12132 -2.12132 
C -2.683901 -1.55874 -3 -0.795609 -3 0 
C -3 0.795609 -2.683901 1.55874 -2.12132 2.12132 
C -1.55874 2.683901 -0.795609 3 0 3 
z
" style="stroke: #484848; stroke-width: 0.5"/>
    </defs>
    <g clip-path="url(#pbf823eb47e)">
     <use xlink:href="#mbcc7b595a7" x="294.96" y="148.219467" style="fill: #ffffff; stroke: #484848; stroke-width: 0.5"/>
    </g>
   </g>
   <g id="PathCollection_2">
    <g clip-path="url(#pbf823eb47e)">
     <use xlink:href="#mbcc7b595a7" x="808.24" y="150.919051" style="fill: #ffffff; stroke: #484848; stroke-width: 0.5"/>
    </g>
   </g>
  </g>
  <g id="text_9">
   <!-- Violin Plot of all Continuous Variables -->
   <g style="fill: #262626" transform="translate(400.766016 17.157656) scale(0.15 -0.15)">
    <defs>
     <path id="DejaVuSans-56" d="M 1831 0 
L 50 4666 
L 709 4666 
L 2188 738 
L 3669 4666 
L 4325 4666 
L 2547 0 
L 1831 0 
z
" transform="scale(0.015625)"/>
     <path id="DejaVuSans-69" d="M 603 3500 
L 1178 3500 
L 1178 0 
L 603 0 
L 603 3500 
z
M 603 4863 
L 1178 4863 
L 1178 4134 
L 603 4134 
L 603 4863 
z
" transform="scale(0.015625)"/>
     <path id="DejaVuSans-6e" d="M 3513 2113 
L 3513 0 
L 2938 0 
L 2938 2094 
Q 2938 2591 2744 2837 
Q 2550 3084 2163 3084 
Q 1697 3084 1428 2787 
Q 1159 2491 1159 1978 
L 1159 0 
L 581 0 
L 581 3500 
L 1159 3500 
L 1159 2956 
Q 1366 3272 1645 3428 
Q 1925 3584 2291 3584 
Q 2894 3584 3203 3211 
Q 3513 2838 3513 2113 
z
" transform="scale(0.015625)"/>
     <path id="DejaVuSans-20" transform="scale(0.015625)"/>
     <path id="DejaVuSans-66" d="M 2375 4863 
L 2375 4384 
L 1825 4384 
Q 1516 4384 1395 4259 
Q 1275 4134 1275 3809 
L 1275 3500 
L 2222 3500 
L 2222 3053 
L 1275 3053 
L 1275 0 
L 697 0 
L 697 3053 
L 147 3053 
L 147 3500 
L 697 3500 
L 697 3744 
Q 697 4328 969 4595 
Q 1241 4863 1831 4863 
L 2375 4863 
z
" transform="scale(0.015625)"/>
     <path id="DejaVuSans-43" d="M 4122 4306 
L 4122 3641 
Q 3803 3938 3442 4084 
Q 3081 4231 2675 4231 
Q 1875 4231 1450 3742 
Q 1025 3253 1025 2328 
Q 1025 1406 1450 917 
Q 1875 428 2675 428 
Q 3081 428 3442 575 
Q 3803 722 4122 1019 
L 4122 359 
Q 3791 134 3420 21 
Q 3050 -91 2638 -91 
Q 1578 -91 968 557 
Q 359 1206 359 2328 
Q 359 3453 968 4101 
Q 1578 4750 2638 4750 
Q 3056 4750 3426 4639 
Q 3797 4528 4122 4306 
z
" transform="scale(0.015625)"/>
     <path id="DejaVuSans-75" d="M 544 1381 
L 544 3500 
L 1119 3500 
L 1119 1403 
Q 1119 906 1312 657 
Q 1506 409 1894 409 
Q 2359 409 2629 706 
Q 2900 1003 2900 1516 
L 2900 3500 
L 3475 3500 
L 3475 0 
L 2900 0 
L 2900 538 
Q 2691 219 2414 64 
Q 2138 -91 1772 -91 
Q 1169 -91 856 284 
Q 544 659 544 1381 
z
M 1991 3584 
L 1991 3584 
z
" transform="scale(0.015625)"/>
     <path id="DejaVuSans-73" d="M 2834 3397 
L 2834 2853 
Q 2591 2978 2328 3040 
Q 2066 3103 1784 3103 
Q 1356 3103 1142 2972 
Q 928 2841 928 2578 
Q 928 2378 1081 2264 
Q 1234 2150 1697 2047 
L 1894 2003 
Q 2506 1872 2764 1633 
Q 3022 1394 3022 966 
Q 3022 478 2636 193 
Q 2250 -91 1575 -91 
Q 1294 -91 989 -36 
Q 684 19 347 128 
L 347 722 
Q 666 556 975 473 
Q 1284 391 1588 391 
Q 1994 391 2212 530 
Q 2431 669 2431 922 
Q 2431 1156 2273 1281 
Q 2116 1406 1581 1522 
L 1381 1569 
Q 847 1681 609 1914 
Q 372 2147 372 2553 
Q 372 3047 722 3315 
Q 1072 3584 1716 3584 
Q 2034 3584 2315 3537 
Q 2597 3491 2834 3397 
z
" transform="scale(0.015625)"/>
     <path id="DejaVuSans-72" d="M 2631 2963 
Q 2534 3019 2420 3045 
Q 2306 3072 2169 3072 
Q 1681 3072 1420 2755 
Q 1159 2438 1159 1844 
L 1159 0 
L 581 0 
L 581 3500 
L 1159 3500 
L 1159 2956 
Q 1341 3275 1631 3429 
Q 1922 3584 2338 3584 
Q 2397 3584 2469 3576 
Q 2541 3569 2628 3553 
L 2631 2963 
z
" transform="scale(0.015625)"/>
     <path id="DejaVuSans-62" d="M 3116 1747 
Q 3116 2381 2855 2742 
Q 2594 3103 2138 3103 
Q 1681 3103 1420 2742 
Q 1159 2381 1159 1747 
Q 1159 1113 1420 752 
Q 1681 391 2138 391 
Q 2594 391 2855 752 
Q 3116 1113 3116 1747 
z
M 1159 2969 
Q 1341 3281 1617 3432 
Q 1894 3584 2278 3584 
Q 2916 3584 3314 3078 
Q 3713 2572 3713 1747 
Q 3713 922 3314 415 
Q 2916 -91 2278 -91 
Q 1894 -91 1617 61 
Q 1341 213 1159 525 
L 1159 0 
L 581 0 
L 581 4863 
L 1159 4863 
L 1159 2969 
z
" transform="scale(0.015625)"/>
     <path id="DejaVuSans-65" d="M 3597 1894 
L 3597 1613 
L 953 1613 
Q 991 1019 1311 708 
Q 1631 397 2203 397 
Q 2534 397 2845 478 
Q 3156 559 3463 722 
L 3463 178 
Q 3153 47 2828 -22 
Q 2503 -91 2169 -91 
Q 1331 -91 842 396 
Q 353 884 353 1716 
Q 353 2575 817 3079 
Q 1281 3584 2069 3584 
Q 2775 3584 3186 3129 
Q 3597 2675 3597 1894 
z
M 3022 2063 
Q 3016 2534 2758 2815 
Q 2500 3097 2075 3097 
Q 1594 3097 1305 2825 
Q 1016 2553 972 2059 
L 3022 2063 
z
" transform="scale(0.015625)"/>
    </defs>
    <use xlink:href="#DejaVuSans-56"/>
    <use xlink:href="#DejaVuSans-69" x="66.158203"/>
    <use xlink:href="#DejaVuSans-6f" x="93.941406"/>
    <use xlink:href="#DejaVuSans-6c" x="155.123047"/>
    <use xlink:href="#DejaVuSans-69" x="182.90625"/>
    <use xlink:href="#DejaVuSans-6e" x="210.689453"/>
    <use xlink:href="#DejaVuSans-20" x="274.068359"/>
    <use xlink:href="#DejaVuSans-50" x="305.855469"/>
    <use xlink:href="#DejaVuSans-6c" x="366.158203"/>
    <use xlink:href="#DejaVuSans-6f" x="393.941406"/>
    <use xlink:href="#DejaVuSans-74" x="455.123047"/>
    <use xlink:href="#DejaVuSans-20" x="494.332031"/>
    <use xlink:href="#DejaVuSans-6f" x="526.119141"/>
    <use xlink:href="#DejaVuSans-66" x="587.300781"/>
    <use xlink:href="#DejaVuSans-20" x="622.505859"/>
    <use xlink:href="#DejaVuSans-61" x="654.292969"/>
    <use xlink:href="#DejaVuSans-6c" x="715.572266"/>
    <use xlink:href="#DejaVuSans-6c" x="743.355469"/>
    <use xlink:href="#DejaVuSans-20" x="771.138672"/>
    <use xlink:href="#DejaVuSans-43" x="802.925781"/>
    <use xlink:href="#DejaVuSans-6f" x="872.75"/>
    <use xlink:href="#DejaVuSans-6e" x="933.931641"/>
    <use xlink:href="#DejaVuSans-74" x="997.310547"/>
    <use xlink:href="#DejaVuSans-69" x="1036.519531"/>
    <use xlink:href="#DejaVuSans-6e" x="1064.302734"/>
    <use xlink:href="#DejaVuSans-75" x="1127.681641"/>
    <use xlink:href="#DejaVuSans-6f" x="1191.060547"/>
    <use xlink:href="#DejaVuSans-75" x="1252.242188"/>
    <use xlink:href="#DejaVuSans-73" x="1315.621094"/>
    <use xlink:href="#DejaVuSans-20" x="1367.720703"/>
    <use xlink:href="#DejaVuSans-56" x="1399.507812"/>
    <use xlink:href="#DejaVuSans-61" x="1460.166016"/>
    <use xlink:href="#DejaVuSans-72" x="1521.445312"/>
    <use xlink:href="#DejaVuSans-69" x="1562.558594"/>
    <use xlink:href="#DejaVuSans-61" x="1590.341797"/>
    <use xlink:href="#DejaVuSans-62" x="1651.621094"/>
    <use xlink:href="#DejaVuSans-6c" x="1715.097656"/>
    <use xlink:href="#DejaVuSans-65" x="1742.880859"/>
    <use xlink:href="#DejaVuSans-73" x="1804.404297"/>
   </g>
  </g>
 </g>
 <defs>
  <clipPath id="pbf823eb47e">
   <rect x="38.32" y="44.64" width="1026.56" height="209.57375"/>
  </clipPath>
 </defs>
</svg>
