<?xml version="1.0" encoding="utf-8"?>
<!-- Generator: Adobe Illustrator 23.0.3, SVG Export Plug-In . SVG Version: 6.00 Build 0)  -->
<svg version="1.1" id="Layer_1" xmlns="http://www.w3.org/2000/svg" xmlns:xlink="http://www.w3.org/1999/xlink" x="0px" y="0px"
	 viewBox="0 0 388.1 97.2" style="enable-background:new 0 0 388.1 97.2;" xml:space="preserve">
<style type="text/css">
	.st0{fill:#1ABC9C;stroke:#34495E;stroke-miterlimit:10;}
	.st1{fill:none;stroke:#2E3696;stroke-width:2;stroke-miterlimit:10;}
	.st2{fill:#34495E;}
</style>
<rect x="5.1" y="28.1" class="st0" width="377.9" height="8.3"/>
<line class="st1" x1="383" y1="17.9" x2="383" y2="46.6"/>
<line class="st1" x1="288.6" y1="17.9" x2="288.6" y2="46.6"/>
<line class="st1" x1="5.1" y1="17.9" x2="5.1" y2="46.6"/>
<line class="st1" x1="194.1" y1="17.9" x2="194.1" y2="46.6"/>
<line class="st1" x1="99.6" y1="17.9" x2="99.6" y2="46.6"/>
<g>
	<polyline class="st1" points="5.1,67.9 5.1,77.4 383,77.4 383,67.9 	"/>
	<line class="st1" x1="194.1" y1="77.4" x2="194.1" y2="67.9"/>
</g>
<g>
	<path class="st2" d="M94.1,90.8c0,0.7-0.3,1.4-0.8,1.9s-1.1,0.8-1.9,0.8c-0.6,0-1.1-0.2-1.6-0.7s-0.7-1-0.7-1.6
		c0-0.4,0.2-0.7,0.6-0.7c0.2,0,0.3,0.1,0.4,0.2s0.2,0.3,0.2,0.4s-0.1,0.3-0.2,0.4s-0.3,0.2-0.4,0.2c-0.1,0-0.1,0-0.2,0
		c0.1,0.4,0.3,0.7,0.7,1s0.7,0.4,1.1,0.4c0.6,0,1-0.3,1.3-0.8c0.2-0.3,0.3-0.9,0.3-1.7c0-0.7-0.1-1.2-0.2-1.5
		c-0.2-0.5-0.6-0.8-1-0.8c-0.3,0-0.7,0.1-0.9,0.3c-0.2,0.1-0.4,0.3-0.5,0.5c-0.1,0.2-0.2,0.3-0.3,0.3c-0.1,0-0.2-0.1-0.2-0.2v-3.8
		c0-0.1,0-0.2,0.1-0.2c0,0,0.1,0,0.2,0c0.6,0.2,1.2,0.4,1.6,0.4c0.5,0,1.1-0.1,1.7-0.4c0,0,0.1,0,0.1,0c0.1,0,0.1,0,0.1,0.1
		c0,0.1-0.1,0.2-0.2,0.3c-0.6,0.6-1.3,0.9-2.1,0.9c-0.3,0-0.7-0.1-1-0.2v2.4c0.4-0.4,0.9-0.6,1.5-0.6c0.7,0,1.2,0.3,1.7,0.8
		C93.9,89.5,94.1,90.1,94.1,90.8z"/>
	<path class="st2" d="M100.3,89.4c0,1.2-0.2,2.1-0.5,2.7c-0.5,0.9-1.2,1.4-2.1,1.4c-0.9,0-1.6-0.4-2-1.2c-0.4-0.6-0.5-1.6-0.5-2.9
		c0-1.2,0.1-2.2,0.4-2.8c0.5-1,1.2-1.4,2.1-1.4c0.9,0,1.6,0.5,2.1,1.4C100.1,87.1,100.3,88.1,100.3,89.4z M99.3,90v-1.5
		c0-0.8-0.1-1.5-0.2-1.9c-0.2-0.7-0.7-1.1-1.3-1.1c-0.7,0-1.1,0.4-1.3,1.1c-0.1,0.4-0.2,1.1-0.2,1.9c0,0.2,0,0.4,0,0.7
		c0,0.3,0,0.6,0,0.7c0,0.9,0.1,1.6,0.2,2.1c0.2,0.9,0.7,1.3,1.4,1.3c0.7,0,1.1-0.4,1.4-1.2C99.2,91.6,99.3,90.9,99.3,90z"/>
	<path class="st2" d="M108.7,84.7c0,0,0,0.1-0.1,0.2l-6.1,9c-0.1,0.1-0.2,0.2-0.2,0.2c-0.2,0-0.2-0.1-0.2-0.2c0-0.1,0-0.1,0.1-0.2
		l5.4-8c-0.4,0.3-0.9,0.4-1.6,0.4c-0.6,0-1.2-0.2-1.7-0.6c0.1,0.3,0.1,0.8,0.1,1.3c0,1.8-0.6,2.7-1.7,2.7c-1.1,0-1.6-0.9-1.6-2.7
		c0-1.8,0.5-2.7,1.6-2.7c0.6,0,1,0.3,1.3,0.8c0.6,0.6,1.3,0.9,1.9,0.9c0.9,0,1.7-0.4,2.3-1.1c0.1-0.1,0.2-0.2,0.3-0.2
		C108.6,84.4,108.7,84.5,108.7,84.7z M103.6,87.1c0-0.9,0-1.3,0-1.2c0-0.5-0.1-0.9-0.2-1.2c-0.2-0.2-0.3-0.3-0.5-0.5
		c-0.1,0-0.2,0-0.3,0c-0.4,0-0.7,0.3-0.8,0.8c-0.1,0.3-0.1,0.7-0.1,1.3v0.8c0,1.3,0.3,2,0.9,2C103.3,89.1,103.6,88.5,103.6,87.1z
		 M110.2,90.8c0,1.8-0.6,2.7-1.7,2.7c-1.1,0-1.6-0.9-1.6-2.7c0-1.8,0.5-2.7,1.6-2.7S110.2,89,110.2,90.8z M109.5,91.2v-0.8
		c0-0.6,0-1-0.1-1.3c-0.1-0.5-0.4-0.8-0.8-0.8c-0.4,0-0.7,0.3-0.8,0.8c-0.1,0.3-0.1,0.7-0.1,1.3v0.8c0,1.3,0.3,2,0.9,2
		C109.1,93.2,109.5,92.6,109.5,91.2z"/>
</g>
<g>
	<path class="st2" d="M283.1,90.8c0,0.7-0.3,1.4-0.8,1.9s-1.1,0.8-1.9,0.8c-0.6,0-1.1-0.2-1.6-0.7s-0.7-1-0.7-1.6
		c0-0.4,0.2-0.7,0.6-0.7c0.2,0,0.3,0.1,0.4,0.2s0.2,0.3,0.2,0.4s-0.1,0.3-0.2,0.4s-0.3,0.2-0.4,0.2c-0.1,0-0.1,0-0.2,0
		c0.1,0.4,0.3,0.7,0.7,1s0.7,0.4,1.1,0.4c0.6,0,1-0.3,1.3-0.8c0.2-0.3,0.3-0.9,0.3-1.7c0-0.7-0.1-1.2-0.2-1.5
		c-0.2-0.5-0.6-0.8-1-0.8c-0.3,0-0.7,0.1-0.9,0.3c-0.2,0.1-0.4,0.3-0.5,0.5c-0.1,0.2-0.2,0.3-0.3,0.3c-0.1,0-0.2-0.1-0.2-0.2v-3.8
		c0-0.1,0-0.2,0.1-0.2c0,0,0.1,0,0.2,0c0.6,0.2,1.2,0.4,1.6,0.4c0.5,0,1.1-0.1,1.7-0.4c0,0,0.1,0,0.1,0c0.1,0,0.1,0,0.1,0.1
		c0,0.1-0.1,0.2-0.2,0.3c-0.6,0.6-1.3,0.9-2.1,0.9c-0.3,0-0.7-0.1-1-0.2v2.4c0.4-0.4,0.9-0.6,1.5-0.6c0.7,0,1.2,0.3,1.7,0.8
		C282.9,89.5,283.1,90.1,283.1,90.8z"/>
	<path class="st2" d="M289.2,89.4c0,1.2-0.2,2.1-0.5,2.7c-0.5,0.9-1.2,1.4-2.1,1.4c-0.9,0-1.6-0.4-2-1.2c-0.4-0.6-0.5-1.6-0.5-2.9
		c0-1.2,0.1-2.2,0.4-2.8c0.5-1,1.2-1.4,2.1-1.4c0.9,0,1.6,0.5,2.1,1.4C289.1,87.1,289.2,88.1,289.2,89.4z M288.2,90v-1.5
		c0-0.8-0.1-1.5-0.2-1.9c-0.2-0.7-0.7-1.1-1.3-1.1c-0.7,0-1.1,0.4-1.3,1.1c-0.1,0.4-0.2,1.1-0.2,1.9c0,0.2,0,0.4,0,0.7
		c0,0.3,0,0.6,0,0.7c0,0.9,0.1,1.6,0.2,2.1c0.2,0.9,0.7,1.3,1.4,1.3c0.7,0,1.1-0.4,1.4-1.2C288.2,91.6,288.2,90.9,288.2,90z"/>
	<path class="st2" d="M297.6,84.7c0,0,0,0.1-0.1,0.2l-6.1,9c-0.1,0.1-0.2,0.2-0.2,0.2c-0.2,0-0.2-0.1-0.2-0.2c0-0.1,0-0.1,0.1-0.2
		l5.4-8c-0.4,0.3-0.9,0.4-1.6,0.4c-0.6,0-1.2-0.2-1.7-0.6c0.1,0.3,0.1,0.8,0.1,1.3c0,1.8-0.6,2.7-1.7,2.7c-1.1,0-1.6-0.9-1.6-2.7
		c0-1.8,0.5-2.7,1.6-2.7c0.6,0,1,0.3,1.3,0.8c0.6,0.6,1.3,0.9,1.9,0.9c0.9,0,1.7-0.4,2.3-1.1c0.1-0.1,0.2-0.2,0.3-0.2
		C297.6,84.4,297.6,84.5,297.6,84.7z M292.6,87.1c0-0.9,0-1.3,0-1.2c0-0.5-0.1-0.9-0.2-1.2c-0.2-0.2-0.3-0.3-0.5-0.5
		c-0.1,0-0.2,0-0.3,0c-0.4,0-0.7,0.3-0.8,0.8c-0.1,0.3-0.1,0.7-0.1,1.3v0.8c0,1.3,0.3,2,0.9,2C292.3,89.1,292.6,88.5,292.6,87.1z
		 M299.1,90.8c0,1.8-0.6,2.7-1.7,2.7c-1.1,0-1.6-0.9-1.6-2.7c0-1.8,0.5-2.7,1.6-2.7S299.1,89,299.1,90.8z M298.4,91.2v-0.8
		c0-0.6,0-1-0.1-1.3c-0.1-0.5-0.4-0.8-0.8-0.8c-0.4,0-0.7,0.3-0.8,0.8c-0.1,0.3-0.1,0.7-0.1,1.3v0.8c0,1.3,0.3,2,0.9,2
		C298.1,93.2,298.4,92.6,298.4,91.2z"/>
</g>
<g>
	<path class="st2" d="M46.9,50.2l-0.3,2.1H42v-0.1c0-0.1,0-0.2,0.1-0.4l2.3-2.6c0.9-0.9,1.3-1.8,1.3-2.7c0-0.5-0.1-1-0.4-1.4
		c-0.3-0.4-0.7-0.6-1.2-0.6c-0.4,0-0.7,0.1-1,0.3c-0.3,0.2-0.5,0.5-0.6,0.9c0,0,0.1,0,0.1,0c0.5,0,0.7,0.2,0.7,0.6
		c0,0.2-0.1,0.3-0.2,0.5s-0.3,0.2-0.5,0.2c-0.4,0-0.7-0.2-0.7-0.7c0-0.6,0.2-1.1,0.7-1.6s1-0.6,1.6-0.6c0.7,0,1.3,0.2,1.8,0.6
		c0.5,0.4,0.8,1,0.8,1.7c0,0.5-0.2,0.9-0.5,1.3c-0.2,0.2-0.5,0.6-1,1.1L43,51.4h2.4c0.5,0,0.8,0,0.9-0.1s0.2-0.4,0.3-1.1H46.9z"/>
	<path class="st2" d="M52.9,49.9c0,0.7-0.3,1.4-0.8,1.9s-1.1,0.8-1.9,0.8c-0.6,0-1.1-0.2-1.6-0.7S48,51,48,50.4
		c0-0.4,0.2-0.7,0.6-0.7c0.2,0,0.3,0.1,0.4,0.2s0.2,0.3,0.2,0.4s-0.1,0.3-0.2,0.4s-0.3,0.2-0.4,0.2c-0.1,0-0.1,0-0.2,0
		c0.1,0.4,0.3,0.7,0.7,1s0.7,0.4,1.1,0.4c0.6,0,1-0.3,1.3-0.8c0.2-0.3,0.3-0.9,0.3-1.7c0-0.7-0.1-1.2-0.2-1.5
		c-0.2-0.5-0.6-0.8-1-0.8c-0.3,0-0.7,0.1-0.9,0.3c-0.2,0.1-0.4,0.3-0.5,0.5c-0.1,0.2-0.2,0.3-0.3,0.3c-0.1,0-0.2-0.1-0.2-0.2v-3.8
		c0-0.1,0-0.2,0.1-0.2c0,0,0.1,0,0.2,0c0.6,0.2,1.2,0.4,1.6,0.4c0.5,0,1.1-0.1,1.7-0.4c0,0,0.1,0,0.1,0c0.1,0,0.1,0,0.1,0.1
		c0,0.1-0.1,0.2-0.2,0.3c-0.6,0.6-1.3,0.9-2.1,0.9c-0.3,0-0.7-0.1-1-0.2v2.4c0.4-0.4,0.9-0.6,1.5-0.6c0.7,0,1.2,0.3,1.7,0.8
		C52.7,48.6,52.9,49.2,52.9,49.9z"/>
	<path class="st2" d="M61.4,43.7c0,0,0,0.1-0.1,0.2l-6.1,9c-0.1,0.1-0.2,0.2-0.2,0.2c-0.2,0-0.2-0.1-0.2-0.2c0-0.1,0-0.1,0.1-0.2
		l5.4-8c-0.4,0.3-0.9,0.4-1.6,0.4c-0.6,0-1.2-0.2-1.7-0.6c0.1,0.3,0.1,0.8,0.1,1.3c0,1.8-0.6,2.7-1.7,2.7c-1.1,0-1.6-0.9-1.6-2.7
		c0-1.8,0.5-2.7,1.6-2.7c0.6,0,1,0.3,1.3,0.8c0.6,0.6,1.3,0.9,1.9,0.9c0.9,0,1.7-0.4,2.3-1.1c0.1-0.1,0.2-0.2,0.3-0.2
		C61.4,43.5,61.4,43.6,61.4,43.7z M56.4,46.2c0-0.9,0-1.3,0-1.2c0-0.5-0.1-0.9-0.2-1.2c-0.2-0.2-0.3-0.3-0.5-0.5c-0.1,0-0.2,0-0.3,0
		c-0.4,0-0.7,0.3-0.8,0.8c-0.1,0.3-0.1,0.7-0.1,1.3v0.8c0,1.3,0.3,2,0.9,2C56,48.2,56.4,47.5,56.4,46.2z M62.9,49.9
		c0,1.8-0.6,2.7-1.7,2.7c-1.1,0-1.6-0.9-1.6-2.7c0-1.8,0.5-2.7,1.6-2.7S62.9,48.1,62.9,49.9z M62.2,50.3v-0.8c0-0.6,0-1-0.1-1.3
		c-0.1-0.5-0.4-0.8-0.8-0.8c-0.4,0-0.7,0.3-0.8,0.8c-0.1,0.3-0.1,0.7-0.1,1.3v0.8c0,1.3,0.3,2,0.9,2C61.9,52.3,62.2,51.6,62.2,50.3z
		"/>
</g>
<g>
	<path class="st2" d="M141.4,50.2l-0.3,2.1h-4.5v-0.1c0-0.1,0-0.2,0.1-0.4l2.3-2.6c0.9-0.9,1.3-1.8,1.3-2.7c0-0.5-0.1-1-0.4-1.4
		c-0.3-0.4-0.7-0.6-1.2-0.6c-0.4,0-0.7,0.1-1,0.3c-0.3,0.2-0.5,0.5-0.6,0.9c0,0,0.1,0,0.1,0c0.5,0,0.7,0.2,0.7,0.6
		c0,0.2-0.1,0.3-0.2,0.5s-0.3,0.2-0.5,0.2c-0.4,0-0.7-0.2-0.7-0.7c0-0.6,0.2-1.1,0.7-1.6s1-0.6,1.6-0.6c0.7,0,1.3,0.2,1.8,0.6
		c0.5,0.4,0.8,1,0.8,1.7c0,0.5-0.2,0.9-0.5,1.3c-0.2,0.2-0.5,0.6-1,1.1l-2.5,2.4h2.4c0.5,0,0.8,0,0.9-0.1s0.2-0.4,0.3-1.1H141.4z"/>
	<path class="st2" d="M147.4,49.9c0,0.7-0.3,1.4-0.8,1.9s-1.1,0.8-1.9,0.8c-0.6,0-1.1-0.2-1.6-0.7s-0.7-1-0.7-1.6
		c0-0.4,0.2-0.7,0.6-0.7c0.2,0,0.3,0.1,0.4,0.2s0.2,0.3,0.2,0.4s-0.1,0.3-0.2,0.4s-0.3,0.2-0.4,0.2c-0.1,0-0.1,0-0.2,0
		c0.1,0.4,0.3,0.7,0.7,1s0.7,0.4,1.1,0.4c0.6,0,1-0.3,1.3-0.8c0.2-0.3,0.3-0.9,0.3-1.7c0-0.7-0.1-1.2-0.2-1.5
		c-0.2-0.5-0.6-0.8-1-0.8c-0.3,0-0.7,0.1-0.9,0.3c-0.2,0.1-0.4,0.3-0.5,0.5c-0.1,0.2-0.2,0.3-0.3,0.3c-0.1,0-0.2-0.1-0.2-0.2v-3.8
		c0-0.1,0-0.2,0.1-0.2c0,0,0.1,0,0.2,0c0.6,0.2,1.2,0.4,1.6,0.4c0.5,0,1.1-0.1,1.7-0.4c0,0,0.1,0,0.1,0c0.1,0,0.1,0,0.1,0.1
		c0,0.1-0.1,0.2-0.2,0.3c-0.6,0.6-1.3,0.9-2.1,0.9c-0.3,0-0.7-0.1-1-0.2v2.4c0.4-0.4,0.9-0.6,1.5-0.6c0.7,0,1.2,0.3,1.7,0.8
		C147.2,48.6,147.4,49.2,147.4,49.9z"/>
	<path class="st2" d="M155.9,43.7c0,0,0,0.1-0.1,0.2l-6.1,9c-0.1,0.1-0.2,0.2-0.2,0.2c-0.2,0-0.2-0.1-0.2-0.2c0-0.1,0-0.1,0.1-0.2
		l5.4-8c-0.4,0.3-0.9,0.4-1.6,0.4c-0.6,0-1.2-0.2-1.7-0.6c0.1,0.3,0.1,0.8,0.1,1.3c0,1.8-0.6,2.7-1.7,2.7c-1.1,0-1.6-0.9-1.6-2.7
		c0-1.8,0.5-2.7,1.6-2.7c0.6,0,1,0.3,1.3,0.8c0.6,0.6,1.3,0.9,1.9,0.9c0.9,0,1.7-0.4,2.3-1.1c0.1-0.1,0.2-0.2,0.3-0.2
		C155.8,43.5,155.9,43.6,155.9,43.7z M150.8,46.2c0-0.9,0-1.3,0-1.2c0-0.5-0.1-0.9-0.2-1.2c-0.2-0.2-0.3-0.3-0.5-0.5
		c-0.1,0-0.2,0-0.3,0c-0.4,0-0.7,0.3-0.8,0.8c-0.1,0.3-0.1,0.7-0.1,1.3v0.8c0,1.3,0.3,2,0.9,2C150.5,48.2,150.8,47.5,150.8,46.2z
		 M157.4,49.9c0,1.8-0.6,2.7-1.7,2.7c-1.1,0-1.6-0.9-1.6-2.7c0-1.8,0.5-2.7,1.6-2.7S157.4,48.1,157.4,49.9z M156.7,50.3v-0.8
		c0-0.6,0-1-0.1-1.3c-0.1-0.5-0.4-0.8-0.8-0.8c-0.4,0-0.7,0.3-0.8,0.8c-0.1,0.3-0.1,0.7-0.1,1.3v0.8c0,1.3,0.3,2,0.9,2
		C156.4,52.3,156.7,51.6,156.7,50.3z"/>
</g>
<g>
	<path class="st2" d="M235.9,50.2l-0.3,2.1H231v-0.1c0-0.1,0-0.2,0.1-0.4l2.3-2.6c0.9-0.9,1.3-1.8,1.3-2.7c0-0.5-0.1-1-0.4-1.4
		c-0.3-0.4-0.7-0.6-1.2-0.6c-0.4,0-0.7,0.1-1,0.3c-0.3,0.2-0.5,0.5-0.6,0.9c0,0,0.1,0,0.1,0c0.5,0,0.7,0.2,0.7,0.6
		c0,0.2-0.1,0.3-0.2,0.5s-0.3,0.2-0.5,0.2c-0.4,0-0.7-0.2-0.7-0.7c0-0.6,0.2-1.1,0.7-1.6s1-0.6,1.6-0.6c0.7,0,1.3,0.2,1.8,0.6
		c0.5,0.4,0.8,1,0.8,1.7c0,0.5-0.2,0.9-0.5,1.3c-0.2,0.2-0.5,0.6-1,1.1l-2.5,2.4h2.4c0.5,0,0.8,0,0.9-0.1s0.2-0.4,0.3-1.1H235.9z"/>
	<path class="st2" d="M241.9,49.9c0,0.7-0.3,1.4-0.8,1.9s-1.1,0.8-1.9,0.8c-0.6,0-1.1-0.2-1.6-0.7s-0.7-1-0.7-1.6
		c0-0.4,0.2-0.7,0.6-0.7c0.2,0,0.3,0.1,0.4,0.2s0.2,0.3,0.2,0.4s-0.1,0.3-0.2,0.4s-0.3,0.2-0.4,0.2c-0.1,0-0.1,0-0.2,0
		c0.1,0.4,0.3,0.7,0.7,1s0.7,0.4,1.1,0.4c0.6,0,1-0.3,1.3-0.8c0.2-0.3,0.3-0.9,0.3-1.7c0-0.7-0.1-1.2-0.2-1.5
		c-0.2-0.5-0.6-0.8-1-0.8c-0.3,0-0.7,0.1-0.9,0.3c-0.2,0.1-0.4,0.3-0.5,0.5c-0.1,0.2-0.2,0.3-0.3,0.3c-0.1,0-0.2-0.1-0.2-0.2v-3.8
		c0-0.1,0-0.2,0.1-0.2c0,0,0.1,0,0.2,0c0.6,0.2,1.2,0.4,1.6,0.4c0.5,0,1.1-0.1,1.7-0.4c0,0,0.1,0,0.1,0c0.1,0,0.1,0,0.1,0.1
		c0,0.1-0.1,0.2-0.2,0.3c-0.6,0.6-1.3,0.9-2.1,0.9c-0.3,0-0.7-0.1-1-0.2v2.4c0.4-0.4,0.9-0.6,1.5-0.6c0.7,0,1.2,0.3,1.7,0.8
		C241.7,48.6,241.9,49.2,241.9,49.9z"/>
	<path class="st2" d="M250.4,43.7c0,0,0,0.1-0.1,0.2l-6.1,9c-0.1,0.1-0.2,0.2-0.2,0.2c-0.2,0-0.2-0.1-0.2-0.2c0-0.1,0-0.1,0.1-0.2
		l5.4-8c-0.4,0.3-0.9,0.4-1.6,0.4c-0.6,0-1.2-0.2-1.7-0.6c0.1,0.3,0.1,0.8,0.1,1.3c0,1.8-0.6,2.7-1.7,2.7c-1.1,0-1.6-0.9-1.6-2.7
		c0-1.8,0.5-2.7,1.6-2.7c0.6,0,1,0.3,1.3,0.8c0.6,0.6,1.3,0.9,1.9,0.9c0.9,0,1.7-0.4,2.3-1.1c0.1-0.1,0.2-0.2,0.3-0.2
		C250.3,43.5,250.4,43.6,250.4,43.7z M245.3,46.2c0-0.9,0-1.3,0-1.2c0-0.5-0.1-0.9-0.2-1.2c-0.2-0.2-0.3-0.3-0.5-0.5
		c-0.1,0-0.2,0-0.3,0c-0.4,0-0.7,0.3-0.8,0.8c-0.1,0.3-0.1,0.7-0.1,1.3v0.8c0,1.3,0.3,2,0.9,2C245,48.2,245.3,47.5,245.3,46.2z
		 M251.9,49.9c0,1.8-0.6,2.7-1.7,2.7c-1.1,0-1.6-0.9-1.6-2.7c0-1.8,0.5-2.7,1.6-2.7S251.9,48.1,251.9,49.9z M251.2,50.3v-0.8
		c0-0.6,0-1-0.1-1.3c-0.1-0.5-0.4-0.8-0.8-0.8c-0.4,0-0.7,0.3-0.8,0.8c-0.1,0.3-0.1,0.7-0.1,1.3v0.8c0,1.3,0.3,2,0.9,2
		C250.9,52.3,251.2,51.6,251.2,50.3z"/>
</g>
<g>
	<path class="st2" d="M330.4,50.2l-0.3,2.1h-4.5v-0.1c0-0.1,0-0.2,0.1-0.4l2.3-2.6c0.9-0.9,1.3-1.8,1.3-2.7c0-0.5-0.1-1-0.4-1.4
		c-0.3-0.4-0.7-0.6-1.2-0.6c-0.4,0-0.7,0.1-1,0.3c-0.3,0.2-0.5,0.5-0.6,0.9c0,0,0.1,0,0.1,0c0.5,0,0.7,0.2,0.7,0.6
		c0,0.2-0.1,0.3-0.2,0.5s-0.3,0.2-0.5,0.2c-0.4,0-0.7-0.2-0.7-0.7c0-0.6,0.2-1.1,0.7-1.6s1-0.6,1.6-0.6c0.7,0,1.3,0.2,1.8,0.6
		c0.5,0.4,0.8,1,0.8,1.7c0,0.5-0.2,0.9-0.5,1.3c-0.2,0.2-0.5,0.6-1,1.1l-2.5,2.4h2.4c0.5,0,0.8,0,0.9-0.1s0.2-0.4,0.3-1.1H330.4z"/>
	<path class="st2" d="M336.4,49.9c0,0.7-0.3,1.4-0.8,1.9s-1.1,0.8-1.9,0.8c-0.6,0-1.1-0.2-1.6-0.7s-0.7-1-0.7-1.6
		c0-0.4,0.2-0.7,0.6-0.7c0.2,0,0.3,0.1,0.4,0.2s0.2,0.3,0.2,0.4s-0.1,0.3-0.2,0.4s-0.3,0.2-0.4,0.2c-0.1,0-0.1,0-0.2,0
		c0.1,0.4,0.3,0.7,0.7,1s0.7,0.4,1.1,0.4c0.6,0,1-0.3,1.3-0.8c0.2-0.3,0.3-0.9,0.3-1.7c0-0.7-0.1-1.2-0.2-1.5
		c-0.2-0.5-0.6-0.8-1-0.8c-0.3,0-0.7,0.1-0.9,0.3c-0.2,0.1-0.4,0.3-0.5,0.5c-0.1,0.2-0.2,0.3-0.3,0.3c-0.1,0-0.2-0.1-0.2-0.2v-3.8
		c0-0.1,0-0.2,0.1-0.2c0,0,0.1,0,0.2,0c0.6,0.2,1.2,0.4,1.6,0.4c0.5,0,1.1-0.1,1.7-0.4c0,0,0.1,0,0.1,0c0.1,0,0.1,0,0.1,0.1
		c0,0.1-0.1,0.2-0.2,0.3c-0.6,0.6-1.3,0.9-2.1,0.9c-0.3,0-0.7-0.1-1-0.2v2.4c0.4-0.4,0.9-0.6,1.5-0.6c0.7,0,1.2,0.3,1.7,0.8
		C336.1,48.6,336.4,49.2,336.4,49.9z"/>
	<path class="st2" d="M344.9,43.7c0,0,0,0.1-0.1,0.2l-6.1,9c-0.1,0.1-0.2,0.2-0.2,0.2c-0.2,0-0.2-0.1-0.2-0.2c0-0.1,0-0.1,0.1-0.2
		l5.4-8c-0.4,0.3-0.9,0.4-1.6,0.4c-0.6,0-1.2-0.2-1.7-0.6c0.1,0.3,0.1,0.8,0.1,1.3c0,1.8-0.6,2.7-1.7,2.7c-1.1,0-1.6-0.9-1.6-2.7
		c0-1.8,0.5-2.7,1.6-2.7c0.6,0,1,0.3,1.3,0.8c0.6,0.6,1.3,0.9,1.9,0.9c0.9,0,1.7-0.4,2.3-1.1c0.1-0.1,0.2-0.2,0.3-0.2
		C344.8,43.5,344.9,43.6,344.9,43.7z M339.8,46.2c0-0.9,0-1.3,0-1.2c0-0.5-0.1-0.9-0.2-1.2c-0.2-0.2-0.3-0.3-0.5-0.5
		c-0.1,0-0.2,0-0.3,0c-0.4,0-0.7,0.3-0.8,0.8c-0.1,0.3-0.1,0.7-0.1,1.3v0.8c0,1.3,0.3,2,0.9,2C339.5,48.2,339.8,47.5,339.8,46.2z
		 M346.4,49.9c0,1.8-0.6,2.7-1.7,2.7c-1.1,0-1.6-0.9-1.6-2.7c0-1.8,0.5-2.7,1.6-2.7S346.4,48.1,346.4,49.9z M345.7,50.3v-0.8
		c0-0.6,0-1-0.1-1.3c-0.1-0.5-0.4-0.8-0.8-0.8c-0.4,0-0.7,0.3-0.8,0.8c-0.1,0.3-0.1,0.7-0.1,1.3v0.8c0,1.3,0.3,2,0.9,2
		C345.4,52.3,345.7,51.6,345.7,50.3z"/>
</g>
<g>
	<path class="st2" d="M10.9,4.9l-2.7,6.7H7.7L5,4.9v6.7H4v-8h1.4l2.5,6.1l2.5-6.1h1.4v8h-1V4.9z"/>
	<path class="st2" d="M13.6,4.2c0-0.3,0.3-0.6,0.6-0.6c0.3,0,0.6,0.3,0.6,0.6s-0.3,0.6-0.6,0.6C13.8,4.8,13.6,4.5,13.6,4.2z
		 M13.7,5.8h0.9v5.8h-0.9V5.8z"/>
	<path class="st2" d="M20.3,7.8c0-1-0.5-1.3-1.3-1.3c-0.7,0-1.4,0.4-1.7,0.9v4.2h-0.9V5.8h0.9v0.8c0.4-0.5,1.2-1,2.1-1
		c1.2,0,1.8,0.6,1.8,1.9v4.1h-0.9V7.8z"/>
</g>
<g>
	<path class="st2" d="M100.5,12c0,0.5-0.1,1-0.3,1.4c-0.3,0.5-0.6,0.7-1.1,0.7c-0.5,0-0.9-0.3-1.1-0.8c-0.1-0.3-0.2-0.8-0.3-1.4
		c-0.4,0.1-0.7,0.2-1.1,0.2c-1.1,0-2-0.4-2.8-1.3c-0.7-0.8-1.1-1.8-1.1-2.9c0-1.1,0.4-2.1,1.1-2.9c0.7-0.9,1.7-1.3,2.8-1.3
		c1.1,0,2,0.4,2.8,1.3c0.7,0.8,1.1,1.8,1.1,2.9c0,0.8-0.2,1.6-0.6,2.3c-0.4,0.7-1,1.2-1.7,1.6c0.2,0.8,0.6,1.1,1.1,1.1
		c0.5,0,0.9-0.3,1.1-1c0-0.1,0.1-0.2,0.1-0.2C100.4,11.8,100.5,11.9,100.5,12z M99.2,8c0-1.8-0.5-3-1.5-3.6
		c-0.4-0.2-0.8-0.3-1.1-0.3c-0.4,0-0.8,0.1-1.1,0.3c-1,0.6-1.6,1.8-1.6,3.6c0,0.8,0.1,1.6,0.4,2.2c0.3,0.8,0.8,1.3,1.5,1.5
		c-0.1-0.2-0.2-0.4-0.2-0.6c0-0.3,0.1-0.5,0.3-0.7s0.4-0.3,0.7-0.3c0.6,0,1,0.4,1.3,1.2C98.8,10.7,99.2,9.6,99.2,8z M97.6,11.6
		c-0.1-0.8-0.5-1.1-1-1.1c-0.2,0-0.4,0.1-0.5,0.2s-0.2,0.3-0.2,0.5c0,0.2,0.1,0.4,0.2,0.5s0.3,0.2,0.5,0.2
		C96.9,11.9,97.3,11.8,97.6,11.6z"/>
	<path class="st2" d="M105.9,11.9c-0.3,0-0.5,0-0.8,0h-2.4c-0.3,0-0.5,0-0.8,0v-0.4c0,0,0.1,0,0.2,0s0.2,0,0.2,0
		c0.6,0,0.9-0.1,1-0.3c0-0.1,0.1-0.2,0.1-0.3V4.6c-0.4,0.2-1,0.3-1.6,0.3V4.6c1,0,1.7-0.3,2.2-0.8h0.1c0.1,0,0.2,0,0.2,0.1
		c0,0,0,0.1,0,0.2V11c0,0.1,0,0.2,0,0.3c0.1,0.1,0.3,0.2,0.7,0.2c0.1,0,0.3,0,0.8,0V11.9z"/>
</g>
<g>
	<path class="st2" d="M182.3,4.9l-2.7,6.7h-0.4l-2.7-6.7v6.7h-1v-8h1.4l2.5,6.1l2.5-6.1h1.4v8h-1V4.9z"/>
	<path class="st2" d="M187.7,5.6c1.8,0,2.8,1.4,2.8,3.1v0.2h-4.7c0.1,1.1,0.8,2,2.1,2c0.7,0,1.3-0.3,1.8-0.7l0.4,0.6
		c-0.6,0.6-1.4,0.9-2.3,0.9c-1.7,0-3-1.2-3-3C184.8,7,186,5.6,187.7,5.6z M185.8,8.3h3.8c0-0.9-0.6-1.9-1.9-1.9
		C186.4,6.4,185.8,7.4,185.8,8.3z"/>
	<path class="st2" d="M196.1,10.7c-0.4,0.6-1.1,1-2,1c-1.5,0-2.6-1.2-2.6-3c0-1.8,1.1-3,2.6-3c0.8,0,1.5,0.4,2,1V3.5h0.9v8h-0.9
		V10.7z M196.1,7.3c-0.3-0.5-1-0.9-1.7-0.9c-1.2,0-1.9,1-1.9,2.2c0,1.3,0.7,2.2,1.9,2.2c0.7,0,1.4-0.4,1.7-0.9V7.3z"/>
	<path class="st2" d="M198.7,4.2c0-0.3,0.3-0.6,0.6-0.6c0.3,0,0.6,0.3,0.6,0.6s-0.3,0.6-0.6,0.6C199,4.8,198.7,4.5,198.7,4.2z
		 M198.8,5.8h0.9v5.8h-0.9V5.8z"/>
	<path class="st2" d="M205.2,10.9c-0.5,0.5-1.1,0.8-1.9,0.8c-1,0-2-0.7-2-1.9c0-1.3,1-1.9,2-1.9c0.8,0,1.5,0.3,1.9,0.8v-1
		c0-0.8-0.6-1.2-1.5-1.2c-0.7,0-1.3,0.3-1.8,0.8l-0.4-0.6c0.6-0.6,1.4-1,2.3-1c1.2,0,2.2,0.6,2.2,2v4h-0.9V10.9z M205.2,9.2
		c-0.3-0.5-1-0.7-1.6-0.7c-0.8,0-1.4,0.5-1.4,1.3c0,0.7,0.6,1.3,1.4,1.3c0.6,0,1.2-0.2,1.6-0.7V9.2z"/>
	<path class="st2" d="M211.8,7.8c0-1-0.5-1.3-1.3-1.3c-0.7,0-1.4,0.4-1.7,0.9v4.2h-0.9V5.8h0.9v0.8c0.4-0.5,1.2-1,2.1-1
		c1.2,0,1.8,0.6,1.8,1.9v4.1h-0.9V7.8z"/>
</g>
<g>
	<path class="st2" d="M289.4,12c0,0.5-0.1,1-0.3,1.4c-0.3,0.5-0.6,0.7-1.1,0.7c-0.5,0-0.9-0.3-1.1-0.8c-0.1-0.3-0.2-0.8-0.3-1.4
		c-0.4,0.1-0.7,0.2-1.1,0.2c-1.1,0-2-0.4-2.8-1.3c-0.7-0.8-1.1-1.8-1.1-2.9c0-1.1,0.4-2.1,1.1-2.9c0.7-0.9,1.7-1.3,2.8-1.3
		c1.1,0,2,0.4,2.8,1.3c0.7,0.8,1.1,1.8,1.1,2.9c0,0.8-0.2,1.6-0.6,2.3c-0.4,0.7-1,1.2-1.7,1.6c0.2,0.8,0.6,1.1,1.1,1.1
		c0.5,0,0.9-0.3,1.1-1c0-0.1,0.1-0.2,0.1-0.2C289.4,11.8,289.4,11.9,289.4,12z M288.2,8c0-1.8-0.5-3-1.5-3.6
		c-0.4-0.2-0.8-0.3-1.1-0.3c-0.4,0-0.8,0.1-1.1,0.3c-1,0.6-1.6,1.8-1.6,3.6c0,0.8,0.1,1.6,0.4,2.2c0.3,0.8,0.8,1.3,1.5,1.5
		c-0.1-0.2-0.2-0.4-0.2-0.6c0-0.3,0.1-0.5,0.3-0.7s0.4-0.3,0.7-0.3c0.6,0,1,0.4,1.3,1.2C287.7,10.7,288.2,9.6,288.2,8z M286.5,11.6
		c-0.1-0.8-0.5-1.1-1-1.1c-0.2,0-0.4,0.1-0.5,0.2s-0.2,0.3-0.2,0.5c0,0.2,0.1,0.4,0.2,0.5s0.3,0.2,0.5,0.2
		C285.9,11.9,286.2,11.8,286.5,11.6z"/>
	<path class="st2" d="M295.4,9.8c0,0.7-0.3,1.2-0.8,1.7c-0.5,0.4-1.1,0.7-1.8,0.7c-0.6,0-1.2-0.2-1.7-0.5c-0.5-0.4-0.8-0.8-0.8-1.4
		c0-0.2,0.1-0.4,0.2-0.5s0.3-0.2,0.5-0.2c0.2,0,0.4,0.1,0.5,0.2s0.2,0.3,0.2,0.5c0,0.2-0.1,0.4-0.2,0.5s-0.3,0.2-0.5,0.2
		c0,0-0.1,0-0.1,0c0.2,0.3,0.5,0.5,0.8,0.7c0.3,0.2,0.7,0.2,1.1,0.2c0.5,0,0.9-0.2,1.1-0.7c0.2-0.4,0.3-0.8,0.3-1.3
		c0-0.6-0.1-1-0.3-1.4c-0.2-0.4-0.6-0.7-1.2-0.7H292c-0.1,0-0.2,0-0.2-0.1c0-0.1,0.1-0.1,0.3-0.2c0.1,0,0.3,0,0.4,0
		c0.5,0,0.8-0.2,1.1-0.6c0.2-0.4,0.3-0.8,0.3-1.4c0-0.4-0.1-0.7-0.3-1c-0.2-0.3-0.5-0.4-0.9-0.4c-0.8,0-1.3,0.3-1.6,0.8
		c0.5,0,0.8,0.2,0.8,0.6c0,0.2-0.1,0.3-0.2,0.4s-0.3,0.2-0.4,0.2c-0.2,0-0.3-0.1-0.5-0.2s-0.2-0.3-0.2-0.5c0-0.5,0.2-0.9,0.7-1.2
		c0.4-0.3,0.9-0.4,1.4-0.4c0.6,0,1.1,0.1,1.5,0.4c0.5,0.3,0.8,0.7,0.8,1.3c0,0.5-0.2,0.9-0.5,1.3c-0.3,0.4-0.7,0.6-1.2,0.8
		c0.6,0.1,1,0.4,1.4,0.8C295.1,8.8,295.4,9.3,295.4,9.8z"/>
</g>
<g>
	<path class="st2" d="M370.9,4.9l-2.7,6.7h-0.4l-2.7-6.7v6.7h-1v-8h1.4l2.5,6.1l2.5-6.1h1.4v8h-1V4.9z"/>
	<path class="st2" d="M377.4,10.9c-0.5,0.5-1.1,0.8-1.9,0.8c-1,0-2-0.7-2-1.9c0-1.3,1-1.9,2-1.9c0.8,0,1.5,0.3,1.9,0.8v-1
		c0-0.8-0.6-1.2-1.5-1.2c-0.7,0-1.3,0.3-1.8,0.8l-0.4-0.6c0.6-0.6,1.4-1,2.3-1c1.2,0,2.2,0.6,2.2,2v4h-0.9V10.9z M377.4,9.2
		c-0.3-0.5-1-0.7-1.6-0.7c-0.8,0-1.4,0.5-1.4,1.3c0,0.7,0.6,1.3,1.4,1.3c0.6,0,1.2-0.2,1.6-0.7V9.2z"/>
	<path class="st2" d="M382.1,9.2l-1.7,2.4h-1l2.2-3l-2.1-2.8h1l1.6,2.2l1.6-2.2h1l-2.1,2.8l2.2,3h-1L382.1,9.2z"/>
</g>
<g>
</g>
<g>
</g>
<g>
</g>
<g>
</g>
<g>
</g>
</svg>
